<?xml version="1.0" encoding="utf-8"?>
<svg width="1024px" height="1024px" viewBox="0 0 1024 1024" version="1.1" xmlns:xlink="http://www.w3.org/1999/xlink" xmlns="http://www.w3.org/2000/svg">
  <defs>
    <path d="M749 0C900.899 0 1024 123.101 1024 275L1024 749C1024 900.899 900.899 1024 749 1024L275 1024C123.101 1024 0 900.899 0 749L0 275C0 123.101 123.101 0 275 0L749 0Z" id="path_1" />
    <clipPath id="clip_1">
      <use xlink:href="#path_1" clip-rule="evenodd" fill-rule="evenodd" />
    </clipPath>
  </defs>
  <g id="amara-logo">
    <path d="M749 0C900.899 0 1024 123.101 1024 275L1024 749C1024 900.899 900.899 1024 749 1024L275 1024C123.101 1024 0 900.899 0 749L0 275C0 123.101 123.101 0 275 0L749 0Z" id="amara-logo" fill="#000000" stroke="none" />
    <g id="Group" transform="translate(275 239)" clip-path="url(#clip_1)">
      <path d="M47.1095 334.173C84.6314 242.674 122.4 151.955 158.976 60.7596C185.48 -5.32609 266.421 -13.9269 306.999 29.6865C316.218 39.5955 322.918 52.3956 328.712 64.8244C349.35 109.098 369.935 153.431 389.006 198.389C427.017 287.993 391.159 390.235 305.617 437.244C250.082 467.763 194.26 497.776 138.226 527.374C80.3455 557.945 9.54152 516.939 7.76272 451.518C7.41183 438.611 10.8339 424.983 15.2944 412.691C24.8491 386.363 36.2187 360.69 47.1095 334.173M342.115 286.413C344.853 263.858 341.9 242.026 332.651 221.31C311.832 174.681 290.665 128.206 269.64 81.6693C264.337 69.9324 255.616 63.2915 242.34 63.646C229.073 64.0001 220.82 71.1959 215.964 83.0536C167.69 200.914 119.384 318.761 71.1224 436.627C66.0425 449.033 68.5458 460.686 77.8671 469.345C86.8584 477.698 99.4903 479.213 111.176 472.929C166.73 443.054 222.543 413.641 277.648 382.961C314.692 362.336 335.722 329.82 342.115 286.413L342.115 286.413Z" id="Shape" fill="#FBFBFB" fill-rule="evenodd" stroke="none" />
      <path d="M327.577 457.621C322.977 453.301 318.445 453.728 313.271 457.011C309.034 459.7 304.226 461.529 299.598 463.576C286.669 469.295 273.703 474.928 259.466 481.158C271.282 488.286 282.035 494.774 293.239 502.203C296.063 503.562 298.887 504.922 302.297 507.142C311.418 512.526 320.54 517.91 330.357 524.077C348.46 536.474 368.014 543.317 390.432 541.132C432.375 537.043 465.854 498.144 463.272 456.622C462.101 437.794 454.01 421.17 448.094 402.725C444.746 393.69 441.397 384.654 438.107 374.488C436.312 369.712 434.516 364.935 432.667 359.043C426.829 342.762 420.991 326.481 414.407 308.121C411.158 336.653 403.318 361.304 389.636 383.83C385.56 390.541 385.091 396.216 389.459 403.69C390.59 406.712 391.721 409.734 394.769 414.511C395.451 413.978 396.134 413.445 396.791 412.996C396.791 412.996 396.731 412.933 395.22 412.771C394.785 414.048 393.672 415.557 394.021 416.566C397.127 425.554 400.491 434.454 403.84 444.542C405.106 449.399 407.073 454.195 407.512 459.125C409.11 477.084 388.577 493.638 367.403 481.686C359.797 477.248 352.191 472.81 343.98 467.638C338.73 464.562 333.48 461.487 327.577 457.621" id="Shape" fill="#FFFFFF" stroke="none" />
    </g>
  </g>
</svg>