<?xml version="1.0" encoding="utf-8"?>
<svg width="1049px" height="342px" viewBox="0 0 1049 342" version="1.1" xmlns:xlink="http://www.w3.org/1999/xlink" xmlns="http://www.w3.org/2000/svg">
  <defs>
    <path d="M1049 0L1049 0L1049 342L0 342L0 0L1049 0Z" id="path_1" />
    <clipPath id="clip_1">
      <use xlink:href="#path_1" clip-rule="evenodd" fill-rule="evenodd" />
    </clipPath>
  </defs>
  <g id="fullname">
    <path d="M1049 0L1049 0L1049 342L0 342L0 0L1049 0Z" id="fullname" fill="none" stroke="none" />
    <g id="amara-brand" clip-path="url(#clip_1)">
      <path d="M1049 0L1049 0L1049 342L0 342L0 0L1049 0L1049 0Z" id="amara-brand#1" fill="none" stroke="none" />
      <g id="file-(6)" transform="translate(101 76)">
        <path d="M846 0L846 0L846 190L0 190L0 0L846 0L846 0Z" id="file-(6)#1" fill="none" stroke="none" />
        <g id="Path" transform="translate(181.99762 18.543701)">
          <path d="M38.6404 75.0208C34.0874 99.8903 29.6094 127.49 26.7804 148.315C25.1854 160.055 -1.45461 155.848 0.0623932 147.915C8.81239 102.155 25.9184 1.9176 25.9184 1.9176L78.0904 100.155L126.968 0C126.968 0 151.974 118.285 157.343 147.406C158.571 154.068 131.531 160.523 129.689 147.938C126.609 126.899 122.471 101.016 118.001 75.6586C104.189 104.465 78.1404 139.707 78.1404 139.707C78.1404 139.707 45.9444 91.0863 38.6404 75.0208L38.6404 75.0208Z" id="path_2" fill="none" stroke="#FFFFFF" stroke-width="14" />
          <path d="M38.6404 75.0208C34.0874 99.8903 29.6094 127.49 26.7804 148.315C25.1854 160.055 -1.45461 155.848 0.0623932 147.915C8.81239 102.155 25.9184 1.9176 25.9184 1.9176L78.0904 100.155L126.968 0C126.968 0 151.974 118.285 157.343 147.406C158.571 154.068 131.531 160.523 129.689 147.938C126.609 126.899 122.471 101.016 118.001 75.6586C104.189 104.465 78.1404 139.707 78.1404 139.707C78.1404 139.707 45.9444 91.0863 38.6404 75.0208L38.6404 75.0208Z" id="path_2" fill="#FFFFFF" stroke="none" />
        </g>
        <g id="Path#1" transform="translate(377.821 17.538605)">
          <path d="M63.88 0C63.88 0 105.917 102.447 126.385 152.354C105.692 158.713 101.656 157.008 95.233 140.526C85.039 114.367 63.88 59.6482 63.88 59.6482C63.88 59.6482 34.443 130.872 30.272 141.255C26.319 159.468 20.399 158.521 0 152.113C12.341 121.528 63.88 0 63.88 0L63.88 0Z" id="path_3" fill="none" stroke="#FFFFFF" stroke-width="14" />
          <path d="M63.88 0C63.88 0 105.917 102.447 126.385 152.354C105.692 158.713 101.656 157.008 95.233 140.526C85.039 114.367 63.88 59.6482 63.88 59.6482C63.88 59.6482 34.443 130.872 30.272 141.255C26.319 159.468 20.399 158.521 0 152.113C12.341 121.528 63.88 0 63.88 0L63.88 0Z" id="path_3" fill="#FFFFFF" stroke="none" />
        </g>
        <g id="Path#2" transform="translate(687.873 17.063202)">
          <path d="M64.24 0C64.24 0 106.087 102.565 126.256 152C107.239 159.333 102.345 157.464 96.23 141.937C85.768 115.372 63.569 58.4916 63.569 58.4916C63.569 58.4916 41.388 114.723 30.849 141.059C24.149 157.803 21.094 159.063 0 153.219C11.111 125.783 64.24 0 64.24 0L64.24 0Z" id="path_4" fill="none" stroke="#FFFFFF" stroke-width="14" />
          <path d="M64.24 0C64.24 0 106.087 102.565 126.256 152C107.239 159.333 102.345 157.464 96.23 141.937C85.768 115.372 63.569 58.4916 63.569 58.4916C63.569 58.4916 41.388 114.723 30.849 141.059C24.149 157.803 21.094 159.063 0 153.219C11.111 125.783 64.24 0 64.24 0L64.24 0Z" id="path_4" fill="#FFFFFF" stroke="none" />
        </g>
        <g id="Path#3" transform="translate(16.2128 17.538605)">
          <path d="M27.3459 152.371C27.3459 152.371 21.9478 157.979 0 152.371C20.2526 102.54 63.3489 0 63.3489 0C63.3489 0 106.125 102.475 126.471 152.371C105.353 158.587 101.668 152.371 101.668 152.371L63.3489 58.2628L27.3459 152.371L27.3459 152.371Z" id="path_5" fill="none" stroke="#FFFFFF" stroke-width="16" />
          <path d="M27.3459 152.371C27.3459 152.371 21.9478 157.979 0 152.371C20.2526 102.54 63.3489 0 63.3489 0C63.3489 0 106.125 102.475 126.471 152.371C105.353 158.587 101.668 152.371 101.668 152.371L63.3489 58.2628L27.3459 152.371L27.3459 152.371Z" id="path_5" fill="#FFFFFF" stroke="none" />
        </g>
        <g id="Path#4" transform="translate(532.206 16.993126)">
          <path d="M81.941 9.75188C113.176 33.2921 116.303 68.862 89.491 95.5999C82.749 102.323 72.868 85.1189 89.491 114.367C94.664 131.427 101.512 139.511 105.748 153.495C85.811 159.233 82.088 157.88 74.51 142.325C66.3 125.471 58.291 108.519 49.953 91.1069C56.183 88.1299 60.679 86.3969 64.752 83.9569C76.78 76.7508 83.233 61.5075 79.841 49.0703C75.396 32.7698 66.213 24.9778 50.079 24.2559C42.331 23.9092 34.558 24.0964 26.797 24.0347C8.302 23.8877 6.46899 22.4614 0 1.06298C27.857 1.25548 55.085 -4.72302 81.941 9.75188L81.941 9.75188L81.941 9.75188Z" id="path_6" fill="none" stroke="#FFFFFF" stroke-width="14" />
          <path d="M81.941 9.75188C113.176 33.2921 116.303 68.862 89.491 95.5999C82.749 102.323 72.868 85.1189 89.491 114.367C94.664 131.427 101.512 139.511 105.748 153.495C85.811 159.233 82.088 157.88 74.51 142.325C66.3 125.471 58.291 108.519 49.953 91.1069C56.183 88.1299 60.679 86.3969 64.752 83.9569C76.78 76.7508 83.233 61.5075 79.841 49.0703C75.396 32.7698 66.213 24.9778 50.079 24.2559C42.331 23.9092 34.558 24.0964 26.797 24.0347C8.302 23.8877 6.46899 22.4614 0 1.06298C27.857 1.25548 55.085 -4.72302 81.941 9.75188L81.941 9.75188L81.941 9.75188Z" id="path_6" fill="#FFFFFF" stroke="none" />
        </g>
      </g>
    </g>
  </g>
</svg>